<?xml version="1.0" encoding="utf-8"?>
<!-- Generator: Adobe Illustrator 19.0.0, SVG Export Plug-In . SVG Version: 6.00 Build 0)  -->
<svg version="1.1" id="layer" xmlns="http://www.w3.org/2000/svg" xmlns:xlink="http://www.w3.org/1999/xlink" x="0px" y="0px"
	 viewBox="-153 -46 652 652" style="enable-background:new -153 -46 652 652;" xml:space="preserve">
<style type="text/css">
	.st0{fill:#3E474F;}
	.st1{fill:#5FCF80;}
</style>
<path class="st0" d="M53.2,296.7c-1.7,0.4-3.9,0.9-6,0.9c-4.3,0-6-2.6-6-6.9v-19.4h12.1c3,0,6-2.2,6-5.6c0-3.5-2.6-5.6-6-5.6H41.2
	v-6.5c0-3.9-3-6.5-6.5-6.5s-6.5,3-6.5,6.5v37.6c0,10.8,5.2,18.6,17.3,18.6c3.5,0,8.2-0.4,11.7-2.2c3-1.3,3.9-3.5,3.9-5.6
	C61,298.8,58,295.8,53.2,296.7z M96.4,258.3c-1.7-0.4-5.2-0.9-8.2-0.9c-10.8,0-16.8,6.5-16.8,16.4v29.4c0,3.5,3,6.5,6.5,6.5
	s6.5-3,6.5-6.5v-26.8c0-4.3,1.7-6,4.7-6s4.7,0.9,7.3,0.9c3.9,0,6-3.5,6-6C102,261.7,100.3,259.6,96.4,258.3z M132.2,257.4
	c-12.1,0-20.7,7.8-22,20.3c0,3-0.4,8.2,0,12.1c0.9,12.1,9.5,20.3,22.4,20.3c6,0,11.7-1.3,15.1-3.5c2.6-1.7,3-3.5,3-5.2
	c0-3.5-3-6.9-8.2-5.2c-3,1.3-6.5,2.2-9.9,2.2c-6,0-10.8-3-10.8-9.1V288h24.6c4.3,0,6.5-2.6,6.5-6.5v-2.2
	C153.4,266,144.8,257.4,132.2,257.4z M140.4,279.4h-18.1c0-6.5,3-10.8,9.9-10.8c6,0,9.5,3.9,9.1,9.5
	C141.3,279,141.3,279.4,140.4,279.4z M184,257.4c-12.1,0-20.7,7.8-22,20.3c0,3-0.4,8.2,0,12.1c0.9,12.1,9.5,20.3,22.4,20.3
	c6,0,11.7-1.3,15.1-3.5c2.6-1.7,3-3.5,3-5.2c0-3.5-3-6.9-8.2-5.2c-3,1.3-6.5,2.2-9.9,2.2c-6,0-10.8-3-10.8-9.1V288h24.6
	c4.3,0,6.5-2.6,6.5-6.5v-2.2C205.2,266,196.6,257.4,184,257.4z M192.2,279.4h-18.1c0-6.5,3-10.8,9.9-10.8c6,0,9.5,3.9,9.1,9.5
	C193.1,279,193.1,279.4,192.2,279.4z M402,279l-6.9-1.7c-4.3-0.9-5.6-2.2-5.6-4.3c0-2.2,2.2-3.9,6.9-3.9c2.6,0,5.6,0.9,8.2,2.2
	c3,1.7,6.5,1.3,8.2-0.9c2.2-2.2,2.2-6-0.4-8.6c-3.5-2.6-9.5-4.3-15.5-4.3c-11.2,0-19.4,5.6-19.4,16c0,8.2,6,12.5,13.8,14.7
	c3.9,0.9,3.5,0.9,6.9,1.7c3.9,0.9,5.6,2.6,5.6,4.3c0,2.6-2.2,4.3-7.3,4.3c-4.3,0-8.2-1.3-11.2-3c-3-2.2-6.5-1.3-8.2,1.3
	c-1.7,2.6-1.3,6,1.3,7.8c3.5,3,9.1,5.6,18.1,5.6c11.2,0,19.9-6,19.9-16.4C416.3,285.9,411.5,281.1,402,279z M462,288
	c4.3,0,6.5-2.6,6.5-6.5l0,0v-2.2c0-13.4-8.6-22-21.2-22c-12.1,0-20.7,7.8-22,20.3c0,3-0.4,8.2,0,12.1c0.9,12.1,9.5,20.3,22.4,20.3
	c6,0,11.7-1.3,15.1-3.5c2.6-1.7,3-3.5,3-5.2c0-3.5-3-6.9-8.2-5.2c-3,1.3-6.5,2.2-9.9,2.2c-6,0-10.8-3-10.8-9.1V288H462z
	 M447.3,268.6c6,0,9.5,3.9,9.1,9.5c0,0.9-0.4,1.3-0.9,1.3h-18.1C437.4,272.9,440.9,268.6,447.3,268.6z M289.4,257.4
	c-12.9,0-22.4,8.2-23.7,19.4c-0.4,3.9-0.4,9.9,0,13.8c0.9,11.2,10.8,19.4,23.7,19.4s22.4-8.2,23.3-19.4c0.4-3.9,0.4-9.5,0-13.4
	C311.8,265.6,302.3,257.4,289.4,257.4z M299.7,288.5c-0.4,5.6-4.3,9.1-10.4,9.1s-9.9-3.9-10.4-9.1c0-2.6,0-6.9,0-9.5
	c0.4-5.6,4.3-9.1,10.4-9.1s9.9,3.9,10.4,9.1C300.2,281.6,300.2,285.9,299.7,288.5z M238,257.4c-4.7,0-9.9,1.7-11.7,3.9l0,0v-13.8
	c0-3.9-2.6-6.5-6-6.5c-3.5,0-6,3-6,6.5v55.7c0,3.5,3,6.5,6.5,6.5s6-3,6-6.5v-28.9c2.2-2.2,5.6-3.9,9.9-3.9c5.2,0,8.2,3,8.2,9.1v23.7
	c0,3.9,2.6,6.9,6,6.9c3.9,0,6.5-3,6.5-6.9v-24.6C257,264.7,250.1,257.4,238,257.4z M358.9,257.8c-3.5,0-6.5,3-6.5,6.5V295
	c-2.2,1.3-5.2,2.6-9.1,2.6c-5.2,0-9.1-3-9.1-9.1v-24.2c0-3.9-3-6.9-6.5-6.9c-3.9,0-6,3-6,6.9v24.6c0,13.4,7.8,20.7,21.2,20.7
	c9.9,0,16.8-3.5,19.9-5.6c1.7-0.9,2.2-2.2,2.2-4.3v-35.4C364.9,260.9,362.3,257.8,358.9,257.8z"/>
<path class="st1" d="M-19.3,231.1c-4.7-2.6-12.1,1.7-16.4,9.5l-8.2,13.8c-3,5.6-2.6,12.5,1.3,18.1l0.4,0.4
	c3.9,5.2,8.6,10.4,10.4,12.1c0.9,0.9,1.7,2.2,2.2,3.9c1.3,4.7-1.3,9.9-6.5,11.2c-4.7,1.3-9.9-1.3-11.2-6.5c-0.4-1.3-0.4-2.6-0.4-3.5
	c0.4-2.2-0.4-5.2-3.5-8.6c-3-3-8.6,3-10.8,9.1v0.4c-1.7,6-3,11.7-2.6,12.1c0,0.4,0.4,0.4,0.4,0.9c2.6,5.2,0.9,11.2-4.3,13.8
	c-5.2,2.6-11.2,0.9-13.8-4.3c-2.6-5.2-0.9-11.2,4.3-13.8c0.4,0,0.4-0.4,0.9-0.4c0.4,0,1.3-2.6,2.6-6c0.9-3,1.3-4.3,1.7-5.6
	c0.4-1.7,1.3-6,0.9-7.8c-0.4-2.2-2.6-2.2-4.7-0.9c-1.3,0.9-3.9,3-4.7,3.9c-2.2,1.7-3.9,4.3-4.7,6.5c-0.4,0.9-1.3,2.2-2.2,3
	c-3.9,3-9.5,2.6-12.9-1.3c-3-3.9-2.6-9.5,1.3-12.9c1.3-0.9,2.6-1.7,3.9-1.7c2.2-0.4,9.9-5.2,14.7-8.6c0.9-0.4,2.2-1.7,2.6-2.2
	c1.3-1.7,0-3-1.3-3c-3.9,0.4-8.2,0.9-9.1,2.2c-0.4,0.4-0.9,1.3-1.7,1.7c-3.5,2.6-8.6,1.7-11.2-1.7c-2.6-3.5-1.7-8.6,1.7-11.2
	c1.3-1.3,3.5-1.7,4.7-1.7c3,0,10.8,1.7,16.8,0.4l1.7-0.4c6.5-1.3,14.2-6.9,17.3-12.5c0,0,3-5.2,6.5-11.7c3.9-6.5,3.5-13.8-0.4-16
	l-7.3-4.3c-3.9-2.2-9.5-2.2-13.4,0l-50.1,28.5c-3.9,2.2-6.9,7.3-6.9,11.7v55.3c0,4.3,3,9.5,6.9,11.7l50.1,28.5
	c3.9,2.2,9.9,2.2,13.4,0l50.1-28.5c3.9-2.2,6.9-7.3,6.9-11.7v-55.3c0-4.3-3-9.5-6.9-11.7C-11.1,235.8-14.5,233.7-19.3,231.1z"/>
</svg>
